#!OML:ASF F:\VICON\USERDATA\INSTALL\rory3\rory3.ASF
:FULLY-SPECIFIED
:DEGREES
1129
root 0.415847 20.5366 5.41221 20.4834 -7.90467 -3.10066
lowerback -11.1842 -0.185415 3.47559
upperback -7.48446 -0.581878 1.28213
thorax -1.56979 -0.402837 -0.676345
lowerneck -6.5988 -13.4936 -14.2951
upperneck 14.9122 -17.7875 6.77454
head 7.55681 -8.89086 2.64515
rclavicle 1.39584e-014 3.8763e-015
rhumerus -34.6841 29.0137 -74.6767
rradius 66.103
rwrist 8.4727
rhand -22.3476 -39.7434
rfingers 7.12502
rthumb 4.07307 -69.6842
lclavicle 1.39584e-014 3.8763e-015
lhumerus -40.3848 -20.6435 59.4872
lradius 76.6031
lwrist 3.2332
lhand -38.8923 -47.4013
lfingers 7.12502
lthumb -11.8998 -17.7594
rfemur -40.9936 3.20224 19.5964
rtibia 33.298
rfoot 25.7118 -9.06622
rtoes -10.1036
lfemur -30.3292 4.507 -17.9861
ltibia 34.1019
lfoot 19.0986 0.693308
ltoes -18.0096
1130
root 0.426092 20.6929 5.34324 20.3787 -8.28663 -2.85207
lowerback -10.7743 -0.18727 3.22961
upperback -7.44657 -0.546234 1.2174
thorax -1.74693 -0.379638 -0.599315
lowerneck -6.35324 -13.4228 -14.4603
upperneck 14.6489 -17.7558 7.16154
head 7.47693 -8.86338 2.8158
rclavicle -2.77906e-014 3.8763e-015
rhumerus -34.707 28.2255 -74.842
rradius 65.2159
rwrist 8.44181
rhand -22.4426 -40.3495
rfingers 7.12502
rthumb 3.98142 -70.292
lclavicle -2.77906e-014 3.8763e-015
lhumerus -40.2488 -20.7803 59.912
lradius 75.1263
lwrist 4.00529
lhand -39.2741 -45.797
lfingers 7.12502
lthumb -12.2679 -16.1768
rfemur -41.9689 3.29466 20.1002
rtibia 34.2881
rfoot 25.4237 -8.89094
rtoes -8.06385
lfemur -31.1192 6.10563 -19.744
ltibia 37.3011
lfoot 19.2263 -0.0503112
ltoes -18.1302
1131
root 0.430785 20.8323 5.26214 20.2917 -8.77126 -2.42334
lowerback -10.2778 -0.188944 2.66878
upperback -7.41476 -0.485014 1.08775
thorax -1.97357 -0.333529 -0.410687
lowerneck -6.32863 -13.427 -14.4115
upperneck 14.6292 -17.7845 7.24617
head 7.47272 -8.86924 2.83404
rclavicle 2.35606e-014 -1.8487e-014
rhumerus -34.6781 27.3286 -75.0497
rradius 64.1809
rwrist 8.47298
rhand -22.7734 -41.1241
rfingers 7.12502
rthumb 3.66189 -71.0723
lclavicle 2.35606e-014 -1.8487e-014
lhumerus -40.0629 -20.978 60.3487
lradius 73.659
lwrist 4.65184
lhand -39.0497 -45.284
lfingers 7.12502
lthumb -12.0516 -15.6511
rfemur -42.9569 3.54596 20.4028
rtibia 34.9296
rfoot 25.3658 -7.99527
rtoes -7.80014
lfemur -32.0888 7.35886 -21.6036
ltibia 40.6692
lfoot 20.1447 0.0648581
ltoes -17.0855
1132
root 0.450254 20.9861 5.18438 19.8777 -8.46006 -3.3188
lowerback -9.22427 -0.199363 3.76838
upperback -7.2745 -0.531547 1.3252
thorax -2.41793 -0.396823 -0.776331
lowerneck -6.39535 -13.4392 -14.2672
upperneck 14.7213 -17.7977 7.14591
head 7.49256 -8.87343 2.77522
rclavicle -1.79147e-014 4.19436e-014
rhumerus -34.6891 26.5521 -75.2155
rradius 63.1225
rwrist 8.72358
rhand -22.829 -41.9567
rfingers 7.12502
rthumb 3.60828 -71.9059
lclavicle -1.79147e-014 4.19436e-014
lhumerus -39.9647 -21.1324 60.8759
lradius 72.2172
lwrist 4.984
lhand -38.0956 -47.3424
lfingers 7.12502
lthumb -11.1315 -17.6577
rfemur -42.8727 3.03211 22.5572
rtibia 35.0513
rfoot 25.1241 -6.36599
rtoes -8.44005
lfemur -32.495 8.18427 -21.6937
ltibia 44.0943
lfoot 20.1036 -1.71547
ltoes -16.9153
1133
root 0.470489 21.1431 5.12006 19.4353 -8.51541 -3.77819
lowerback -8.23776 -0.228165 4.32006
upperback -7.25768 -0.547366 1.48463
thorax -2.95174 -0.431241 -0.911482
lowerneck -6.13291 -13.3198 -14.2152
upperneck 14.6998 -17.6669 7.09677
head 7.41687 -8.8209 2.79061
rclavicle -2.61208e-014 1.78906e-014
rhumerus -35.0534 25.9687 -75.4591
rradius 62.2072
rwrist 9.12896
rhand -22.7365 -42.8444
rfingers 7.12502
rthumb 3.69759 -72.7921
lclavicle -2.61208e-014 1.78906e-014
lhumerus -40.2032 -21.191 61.5695
lradius 70.7426
lwrist 4.82159
lhand -36.0367 -45.5739
lfingers 7.12502
lthumb -9.14517 -15.7922
rfemur -42.6387 2.49607 24.1781
rtibia 34.815
rfoot 24.8109 -4.7847
rtoes -8.85571
lfemur -32.7382 8.67604 -22.1836
ltibia 47.2805
lfoot 18.2265 -3.07226
ltoes -23.4542
1134
root 0.488282 21.3008 5.0693 18.9158 -8.83098 -4.04047
lowerback -7.33201 -0.197983 4.61684
upperback -7.22772 -0.467037 1.54212
thorax -3.42217 -0.409818 -1.00573
lowerneck -5.87229 -13.1795 -14.0716
upperneck 14.6939 -17.5147 7.02168
head 7.33341 -8.75542 2.78808
rclavicle 1.01799e-014 1.49089e-015
rhumerus -35.5106 25.3109 -75.7536
rradius 61.3073
rwrist 9.36911
rhand -22.761 -44.229
rfingers 7.12502
rthumb 3.67389 -74.1771
lclavicle 1.01799e-014 1.49089e-015
lhumerus -40.5299 -21.3327 62.3319
lradius 69.2017
lwrist 4.10306
lhand -37.2275 -44.8664
lfingers 7.12502
lthumb -10.2942 -15.1383
rfemur -42.103 2.16041 25.4509
rtibia 34.2309
rfoot 24.1197 -3.34802
rtoes -10.0791
lfemur -32.7743 8.88598 -22.7618
ltibia 50.0657
lfoot 17.7734 -4.2339
ltoes -23.4128
1135
root 0.497589 21.4384 5.01578 18.3519 -9.22785 -4.36084
lowerback -6.39324 -0.0952779 4.81675
upperback -7.12372 -0.279548 1.61419
thorax -3.82748 -0.328355 -1.03003
lowerneck -5.71837 -13.118 -13.9513
upperneck 14.6928 -17.4582 6.97853
head 7.28538 -8.73063 2.77743
rclavicle 1.12539e-014 4.77083e-015
rhumerus -35.646 24.4043 -75.9235
rradius 60.075
rwrist 9.5068
rhand -22.8257 -45.4519
rfingers 7.12502
rthumb 3.6114 -75.4011
lclavicle 1.12539e-014 4.77083e-015
lhumerus -40.6412 -21.4569 63.1339
lradius 67.6506
lwrist 3.30511
lhand -37.6383 -44.7742
lfingers 7.12502
lthumb -10.6904 -15.0662
rfemur -41.4539 2.25262 26.6303
rtibia 33.5908
rfoot 23.5167 -2.78898
rtoes -10.1121
lfemur -32.6495 9.00864 -23.15
ltibia 52.202
lfoot 19.2999 -5.3578
ltoes -13.9795
1136
root 0.502942 21.5569 4.95429 17.7499 -9.62817 -4.82553
lowerback -5.22034 -0.0382165 5.04444
upperback -7.07027 -0.126931 1.80953
thorax -4.4222 -0.267591 -0.945114
lowerneck -5.29628 -12.9946 -14.0398
upperneck 14.5029 -17.3437 7.08986
head 7.15756 -8.68565 2.87303
rclavicle -2.67354e-014 -6.16232e-015
rhumerus -35.8136 23.5056 -76.1154
rradius 58.7817
rwrist 9.92473
rhand -22.7402 -46.3291
rfingers 7.12502
rthumb 3.69395 -76.2768
lclavicle -2.67354e-014 -6.16232e-015
lhumerus -40.8707 -21.2524 63.9499
lradius 66.2855
lwrist 3.07216
lhand -36.8562 -45.3861
lfingers 7.12502
lthumb -9.9359 -15.6406
rfemur -40.8459 2.45528 28.0009
rtibia 33.1373
rfoot 23.4417 -3.22898
rtoes -8.22044
lfemur -32.4068 9.24521 -23.3232
ltibia 53.7408
lfoot 20.805 -6.6202
ltoes -4.45304
1137
root 0.524854 21.698 4.95167 17.29 -9.5946 -5.3509
lowerback -5.00907 -0.0816186 5.87462
upperback -6.87356 -0.19049 1.9351
thorax -4.34929 -0.330206 -1.27814
lowerneck -5.03098 -12.8504 -14.0314
upperneck 14.3638 -17.1897 7.18125
head 7.05787 -8.61382 2.94255
rclavicle -3.17172e-014 -2.32578e-014
rhumerus -36.0895 22.7151 -76.408
rradius 57.6265
rwrist 10.4034
rhand -22.7677 -46.5101
rfingers 7.12502
rthumb 3.66745 -76.4583
lclavicle -3.17172e-014 -2.32578e-014
lhumerus -41.156 -21.1056 64.7985
lradius 64.6188
lwrist 1.9436
lhand -36.8602 -44.3529
lfingers 7.12502
lthumb -9.93972 -14.6076
rfemur -40.1081 0.89177 29.9892
rtibia 32.758
rfoot 23.5762 -1.9228
rtoes -7.88842
lfemur -31.6007 9.23737 -23.4069
ltibia 54.4449
lfoot 18.9671 -7.2441
ltoes -9.12635
1138
root 0.543595 21.8002 4.90601 16.9361 -9.53803 -5.35041
lowerback -4.4269 -0.204974 6.03374
upperback -6.84215 -0.312028 1.93217
thorax -4.65541 -0.405013 -1.36647
lowerneck -5.0763 -12.7781 -13.8607
upperneck 14.514 -17.0864 7.02351
head 7.0734 -8.56605 2.878
rclavicle -3.67963e-014 -2.98177e-015
rhumerus -36.3526 21.9933 -76.6972
rradius 56.4713
rwrist 10.7826
rhand -22.8996 -46.016
rfingers 7.12502
rthumb 3.54005 -75.9664
lclavicle -3.67963e-014 -2.98177e-015
lhumerus -41.2793 -20.8913 65.5761
lradius 62.9808
lwrist 1.15685
lhand -36.6627 -43.9623
lfingers 7.12502
lthumb -9.74919 -14.208
rfemur -39.9361 -0.493415 31.3184
rtibia 32.6003
rfoot 23.817 -0.486841
rtoes -8.71511
lfemur -31.0021 8.9755 -24.0504
ltibia 54.5864
lfoot 17.9641 -8.13862
ltoes -11.4694
1139
root 0.54379 21.8974 4.87433 16.6948 -9.93769 -5.67273
lowerback -4.15508 -0.222107 6.11073
upperback -6.78725 -0.311176 2.10396
thorax -4.75108 -0.405037 -1.22918
lowerneck -4.78533 -12.6159 -13.8566
upperneck 14.4771 -16.8933 6.97341
head 6.98642 -8.48608 2.90772
rclavicle 2.2488e-014 -2.36554e-014
rhumerus -36.6333 21.5694 -77.0417
rradius 55.3183
rwrist 11.0673
rhand -22.9665 -46.0891
rfingers 7.12502
rthumb 3.47545 -76.0405
lclavicle 2.2488e-014 -2.36554e-014
lhumerus -41.5942 -20.3798 66.372
lradius 61.4237
lwrist 0.737872
lhand -36.338 -44.3862
lfingers 7.12502
lthumb -9.4359 -14.6174
rfemur -39.7124 -0.838714 32.6549
rtibia 32.5275
rfoot 23.7293 -0.949484
rtoes -7.28114
lfemur -30.2735 9.26158 -24.3516
ltibia 54.1245
lfoot 17.494 -8.93183
ltoes -11.316
